<svg width="62" height="62" viewBox="0 0 62 62" fill="none" xmlns="http://www.w3.org/2000/svg">
<path d="M50.3293 17.8391V31.6947C50.2262 37.0211 49.3662 39.4282 47.5778 43.1365C44.3843 49.7546 38.8847 54.6237 32.4355 57.2648C31.9667 57.4568 31.4929 57.6373 31.0149 57.8055C30.5362 57.6373 30.0625 57.4568 29.5936 57.2648C23.1437 54.6237 17.6449 49.7546 14.4521 43.1365C12.6629 39.4282 11.8037 37.0211 11.6999 31.6947V17.8391" stroke="white" stroke-width="2"/>
<path d="M18.606 12.9257C17.038 15.9528 14.0181 17.8409 10.7774 17.8389" stroke="white" stroke-width="2"/>
<path d="M30.9294 11.2372H19.35C19.1552 11.8322 18.9048 12.396 18.6057 12.9258" stroke="white" stroke-width="2"/>
<path d="M30.9296 11.2372H42.1943C42.3845 11.8322 42.6281 12.396 42.919 12.9258C44.5823 15.953 47.7857 17.8411 51.2226 17.839" stroke="white" stroke-width="2"/>
<path fill-rule="evenodd" clip-rule="evenodd" d="M31.0145 19.295C32.5659 19.295 33.8234 20.5528 33.8234 22.1043C33.8234 23.656 32.5659 24.9137 31.0145 24.9137C29.4631 24.9137 28.2049 23.656 28.2049 22.1043C28.2049 20.5528 29.4631 19.295 31.0145 19.295" fill="white"/>
<path d="M19.0244 35.1463V37.1983H17.6324V35.1463H15.5804V33.7543H17.6324V31.7023H19.0244V33.7543H21.0764V35.1463H19.0244ZM24.2546 37.9423C23.7426 37.9423 23.3106 37.8743 22.9586 37.7383C22.6146 37.6023 22.3346 37.4623 22.1186 37.3183L21.9146 35.3623C22.0266 35.4823 22.1626 35.6023 22.3226 35.7223C22.4826 35.8343 22.6586 35.9383 22.8506 36.0343C23.0506 36.1303 23.2666 36.2063 23.4986 36.2623C23.7386 36.3183 23.9906 36.3463 24.2546 36.3463C24.7106 36.3463 25.0906 36.2263 25.3946 35.9863C25.6986 35.7383 25.8506 35.4063 25.8506 34.9903C25.8506 34.5823 25.6906 34.2583 25.3706 34.0183C25.0586 33.7783 24.6546 33.6583 24.1586 33.6583C23.9506 33.6583 23.7626 33.6743 23.5946 33.7063C23.4346 33.7303 23.3026 33.7623 23.1986 33.8023V32.4223L24.7826 31.0183H22.2146V29.4223H27.0866V30.9463L25.4306 32.4103C25.6786 32.4583 25.9266 32.5583 26.1746 32.7103C26.4306 32.8543 26.6586 33.0383 26.8586 33.2623C27.0586 33.4863 27.2186 33.7463 27.3386 34.0423C27.4666 34.3303 27.5306 34.6463 27.5306 34.9903C27.5306 35.3823 27.4426 35.7583 27.2666 36.1183C27.0986 36.4703 26.8666 36.7823 26.5706 37.0543C26.2746 37.3263 25.9266 37.5423 25.5266 37.7023C25.1266 37.8623 24.7026 37.9423 24.2546 37.9423ZM28.5544 33.6223C28.5544 33.0303 28.6224 32.4743 28.7584 31.9543C28.8944 31.4263 29.0904 30.9663 29.3464 30.5743C29.6024 30.1823 29.9184 29.8743 30.2944 29.6503C30.6784 29.4183 31.1184 29.3023 31.6144 29.3023C32.1024 29.3023 32.5384 29.4183 32.9224 29.6503C33.3064 29.8743 33.6264 30.1823 33.8824 30.5743C34.1384 30.9663 34.3344 31.4263 34.4704 31.9543C34.6064 32.4743 34.6744 33.0303 34.6744 33.6223C34.6744 34.2143 34.6064 34.7743 34.4704 35.3023C34.3344 35.8223 34.1384 36.2783 33.8824 36.6703C33.6264 37.0623 33.3064 37.3743 32.9224 37.6063C32.5384 37.8303 32.1024 37.9423 31.6144 37.9423C31.1184 37.9423 30.6784 37.8303 30.2944 37.6063C29.9184 37.3743 29.6024 37.0623 29.3464 36.6703C29.0904 36.2783 28.8944 35.8223 28.7584 35.3023C28.6224 34.7743 28.5544 34.2143 28.5544 33.6223ZM31.6144 30.8983C31.3744 30.8983 31.1664 30.9783 30.9904 31.1383C30.8144 31.2903 30.6704 31.4943 30.5584 31.7503C30.4544 32.0063 30.3744 32.2983 30.3184 32.6263C30.2704 32.9543 30.2464 33.2863 30.2464 33.6223C30.2464 33.9583 30.2704 34.2903 30.3184 34.6183C30.3744 34.9463 30.4544 35.2383 30.5584 35.4943C30.6704 35.7503 30.8144 35.9583 30.9904 36.1183C31.1664 36.2703 31.3744 36.3463 31.6144 36.3463C31.8544 36.3463 32.0624 36.2703 32.2384 36.1183C32.4144 35.9583 32.5544 35.7503 32.6584 35.4943C32.7704 35.2383 32.8504 34.9463 32.8984 34.6183C32.9544 34.2903 32.9824 33.9583 32.9824 33.6223C32.9824 33.2863 32.9544 32.9543 32.8984 32.6263C32.8504 32.2983 32.7704 32.0063 32.6584 31.7503C32.5544 31.4943 32.4144 31.2903 32.2384 31.1383C32.0624 30.9783 31.8544 30.8983 31.6144 30.8983ZM37.2827 37.8223L42.9227 29.4223H44.5187L38.8787 37.8223H37.2827ZM37.9667 29.3023C38.2867 29.3023 38.5867 29.3623 38.8667 29.4823C39.1467 29.6023 39.3907 29.7663 39.5987 29.9743C39.8147 30.1743 39.9827 30.4103 40.1027 30.6823C40.2307 30.9543 40.2947 31.2463 40.2947 31.5583C40.2947 31.8703 40.2307 32.1663 40.1027 32.4463C39.9827 32.7183 39.8147 32.9583 39.5987 33.1663C39.3907 33.3663 39.1467 33.5263 38.8667 33.6463C38.5867 33.7583 38.2867 33.8143 37.9667 33.8143C37.6467 33.8143 37.3467 33.7583 37.0667 33.6463C36.7867 33.5263 36.5387 33.3663 36.3227 33.1663C36.1147 32.9583 35.9467 32.7183 35.8187 32.4463C35.6987 32.1663 35.6387 31.8703 35.6387 31.5583C35.6387 31.2463 35.6987 30.9543 35.8187 30.6823C35.9467 30.4103 36.1147 30.1743 36.3227 29.9743C36.5387 29.7663 36.7867 29.6023 37.0667 29.4823C37.3467 29.3623 37.6467 29.3023 37.9667 29.3023ZM38.8187 31.5583C38.8187 31.3263 38.7347 31.1263 38.5667 30.9583C38.3987 30.7903 38.1987 30.7063 37.9667 30.7063C37.7347 30.7063 37.5347 30.7903 37.3667 30.9583C37.1987 31.1263 37.1147 31.3263 37.1147 31.5583C37.1147 31.7903 37.1987 31.9903 37.3667 32.1583C37.5347 32.3263 37.7347 32.4103 37.9667 32.4103C38.1987 32.4103 38.3987 32.3263 38.5667 32.1583C38.7347 31.9903 38.8187 31.7903 38.8187 31.5583ZM43.8347 33.4303C44.1547 33.4303 44.4547 33.4903 44.7347 33.6103C45.0147 33.7303 45.2587 33.8943 45.4667 34.1023C45.6827 34.3023 45.8507 34.5383 45.9707 34.8103C46.0987 35.0823 46.1627 35.3743 46.1627 35.6863C46.1627 35.9983 46.0987 36.2943 45.9707 36.5743C45.8507 36.8463 45.6827 37.0863 45.4667 37.2943C45.2587 37.4943 45.0147 37.6543 44.7347 37.7743C44.4547 37.8863 44.1547 37.9423 43.8347 37.9423C43.5147 37.9423 43.2147 37.8863 42.9347 37.7743C42.6547 37.6543 42.4067 37.4943 42.1907 37.2943C41.9827 37.0863 41.8147 36.8463 41.6867 36.5743C41.5667 36.2943 41.5067 35.9983 41.5067 35.6863C41.5067 35.3743 41.5667 35.0823 41.6867 34.8103C41.8147 34.5383 41.9827 34.3023 42.1907 34.1023C42.4067 33.8943 42.6547 33.7303 42.9347 33.6103C43.2147 33.4903 43.5147 33.4303 43.8347 33.4303ZM44.6867 35.6863C44.6867 35.4543 44.6027 35.2543 44.4347 35.0863C44.2667 34.9183 44.0667 34.8343 43.8347 34.8343C43.6027 34.8343 43.4027 34.9183 43.2347 35.0863C43.0667 35.2543 42.9827 35.4543 42.9827 35.6863C42.9827 35.9183 43.0667 36.1183 43.2347 36.2863C43.4027 36.4543 43.6027 36.5383 43.8347 36.5383C44.0667 36.5383 44.2667 36.4543 44.4347 36.2863C44.6027 36.1183 44.6867 35.9183 44.6867 35.6863Z" fill="white"/>
</svg>
