<svg width="22" height="22" xmlns="http://www.w3.org/2000/svg" fill="none">

 <g>
  <title>Layer 1</title>
  <path id="svg_1" fill="#333333" d="m2.16,5.101l17.68,0c0.641,0 1.16,-0.528 1.16,-1.182c0,-0.652 -0.519,-1.182 -1.16,-1.182l-17.68,0c-0.641,0 -1.16,0.53 -1.16,1.182a1.17,1.17 0 0 0 1.16,1.182zm17.68,4.875l-17.68,0c-0.641,0 -1.16,0.53 -1.16,1.182a1.17,1.17 0 0 0 1.16,1.182l17.68,0c0.641,0 1.16,-0.528 1.16,-1.182c0,-0.652 -0.519,-1.182 -1.16,-1.182zm0,7.239l-17.68,0c-0.641,0 -1.16,0.53 -1.16,1.182a1.17,1.17 0 0 0 1.16,1.182l17.68,0c0.641,0 1.16,-0.529 1.16,-1.182c0,-0.652 -0.519,-1.182 -1.16,-1.182z"/>
 </g>
</svg>