<svg width="22" height="22" xmlns="http://www.w3.org/2000/svg" version="1.1" enable-background="new 0 0 122.878 122.88" xml:space="preserve">
 <g>
  <title>Layer 1</title>
  <g stroke="null" id="svg_1" fill="#000000">
   <path stroke="null" d="m2.21604,4.45757c-0.25176,-0.22762 -0.25176,-0.59677 0,-0.82451c0.25176,-0.22774 0.66005,-0.22774 0.91194,0l7.03583,6.36127l7.03583,-6.36127c0.25176,-0.22774 0.66005,-0.22774 0.91208,0c0.25176,0.22762 0.25176,0.59689 0,0.82451l-7.03609,6.36115l7.03596,6.36139c0.25176,0.22762 0.25176,0.59677 0,0.82451c-0.25189,0.22774 -0.66018,0.22774 -0.91208,0l-7.03583,-6.36127l-7.0357,6.36127c-0.25176,0.22774 -0.66005,0.22774 -0.91194,0c-0.25176,-0.22762 -0.25176,-0.59677 0,-0.82451l7.03583,-6.36139l-7.03583,-6.36115l0,0z" id="svg_2" fill="#e5e5e5"/>
  </g>
 </g>

</svg>