<svg width="62" height="62" xmlns="http://www.w3.org/2000/svg" xml:space="preserve" enable-background="new 0 0 62 62" version="1.1">

 <g>
  <title>Layer 1</title>
  <g id="svg_1">
   <g id="svg_2">
    <path id="svg_3" d="m6.001,17.3c3.192,0 4.963,3.153 4.963,7.006c0,3.851 -1.771,7.005 -4.963,7.005s-4.962,-3.154 -4.962,-7.005c-0.001,-3.853 1.77,-7.006 4.962,-7.006zm-2.219,7.006c0,2.199 0.643,4.416 2.219,4.416c1.577,0 2.219,-2.217 2.219,-4.416c0,-2.2 -0.642,-4.418 -2.219,-4.418c-1.576,-0.001 -2.219,2.218 -2.219,4.418z" fill="#273141"/>
    <path id="svg_4" d="m15.143,15.8l2.433,0l0,17.008l-2.433,0l0,-17.008z" fill="#273141"/>
    <path id="svg_5" d="m26.72,17.3c3.191,0 4.963,3.153 4.963,7.006c0,3.851 -1.771,7.005 -4.963,7.005s-4.962,-3.154 -4.962,-7.005c0,-3.853 1.77,-7.006 4.962,-7.006zm-2.22,7.006c0,2.199 0.643,4.416 2.22,4.416s2.219,-2.217 2.219,-4.416c0,-2.2 -0.642,-4.418 -2.219,-4.418s-2.22,2.218 -2.22,4.418z" fill="#273141"/>
    <path id="svg_6" d="m35.861,15.8l2.433,0l0,17.008l-2.433,0l0,-17.008z" fill="#273141"/>
    <path id="svg_7" d="m42.477,20.062l2.53,-2.569l2.725,0l0,13.623l-2.725,0l0,-10.334l-2.53,2.569l0,-3.289z" fill="#273141"/>
    <path id="svg_8" d="m55.998,17.3c3.191,0 4.963,3.153 4.963,7.006c0,3.851 -1.771,7.005 -4.963,7.005s-4.961,-3.154 -4.961,-7.005c0,-3.853 1.77,-7.006 4.961,-7.006zm-2.219,7.006c0,2.199 0.643,4.416 2.219,4.416s2.219,-2.217 2.219,-4.416c0,-2.2 -0.643,-4.418 -2.219,-4.418s-2.219,2.218 -2.219,4.418z" fill="#273141"/>
   </g>
   <g id="svg_9">
    <path id="svg_10" d="m3.866,43.162l-1.699,0l0,2.938l-1.14,0l0,-6.996l2.838,0c1.179,0 2.059,0.879 2.059,2.029c0.001,1.148 -0.879,2.029 -2.058,2.029zm-0.06,-2.978l-1.639,0l0,1.898l1.639,0c0.58,0 0.979,-0.4 0.979,-0.949c0,-0.551 -0.4,-0.949 -0.979,-0.949z" fill="#273141"/>
    <path id="svg_11" d="m9.866,39.104l2.978,6.996l-1.229,0l-0.65,-1.539l-3.408,0l-0.65,1.539l-1.209,0l2.979,-6.996l1.189,0zm-1.859,4.378l2.499,0l-1.25,-2.949l-1.249,2.949z" fill="#273141"/>
    <path id="svg_12" d="m19.164,41.002c-0.629,-0.529 -1.429,-0.918 -2.358,-0.918c-1.5,0 -2.619,1.049 -2.619,2.518s1.119,2.52 2.619,2.52c0.929,0 1.729,-0.391 2.358,-0.92l-0.16,1.26c-0.62,0.51 -1.339,0.738 -2.199,0.738c-2.139,0 -3.758,-1.539 -3.758,-3.598s1.619,-3.598 3.758,-3.598c0.859,0 1.579,0.23 2.199,0.74l0.16,1.258z" fill="#273141"/>
    <path id="svg_13" d="m26.134,41.002c-0.629,-0.529 -1.429,-0.918 -2.358,-0.918c-1.5,0 -2.619,1.049 -2.619,2.518s1.119,2.52 2.619,2.52c0.929,0 1.729,-0.391 2.358,-0.92l-0.16,1.26c-0.62,0.51 -1.339,0.738 -2.199,0.738c-2.139,0 -3.758,-1.539 -3.758,-3.598s1.619,-3.598 3.758,-3.598c0.859,0 1.579,0.23 2.199,0.74l0.16,1.258z" fill="#273141"/>
    <path id="svg_14" d="m30.325,43.162l-1.699,0l0,2.938l-1.139,0l0,-6.996l2.838,0c1.18,0 2.06,0.879 2.06,2.029c0,1.148 -0.88,2.029 -2.06,2.029zm-0.059,-2.978l-1.639,0l0,1.898l1.639,0c0.58,0 0.979,-0.4 0.979,-0.949c0,-0.551 -0.399,-0.949 -0.979,-0.949z" fill="#273141"/>
    <path id="svg_15" d="m36.676,39.004c2.009,0 3.638,1.609 3.638,3.598c0,1.99 -1.629,3.598 -3.638,3.598c-2.01,0 -3.639,-1.607 -3.639,-3.598c0,-1.989 1.629,-3.598 3.639,-3.598zm0,1.08c-1.399,0 -2.499,1.119 -2.499,2.518c0,1.4 1.1,2.52 2.499,2.52c1.398,0 2.498,-1.119 2.498,-2.52c0,-1.399 -1.1,-2.518 -2.498,-2.518z" fill="#273141"/>
    <path id="svg_16" d="m42.306,39.104l0,1.738c0,1.09 0.55,1.451 1.609,1.451c0.55,0 0.93,-0.061 1.35,-0.17l0,-3.02l1.14,0l0,6.997l-1.14,0l0,-2.889c-0.41,0.102 -0.91,0.16 -1.479,0.16c-1.519,0 -2.618,-0.639 -2.618,-2.389l0,-1.879l1.138,0l0,0.001z" fill="#273141"/>
    <path id="svg_17" d="m49.247,41.973l2.688,-2.869l1.499,0l-3.049,3.258l3.318,3.738l-1.499,0l-2.599,-2.908l-0.359,0.391l0,2.517l-1.14,0l0,-6.996l1.14,0l0,2.869l0.001,0z" fill="#273141"/>
    <path id="svg_18" d="m57.994,39.104l2.979,6.996l-1.229,0l-0.649,-1.539l-3.408,0l-0.651,1.539l-1.209,0l2.978,-6.996l1.189,0zm-1.858,4.378l2.498,0l-1.249,-2.949l-1.249,2.949z" fill="#273141"/>
   </g>
  </g>
 </g>
</svg>